Format                                   : MPEG-4
Format profile                           : Base Media / Version 2
Codec ID                                 : mp42
File size                                : 1.37 GiB
Duration                                 : 2h 6mn
Overall bit rate mode                    : Variable
Overall bit rate                         : 1 553 Kbps

Video
ID                                       : 2
Format                                   : AVC
Format/Info                              : Advanced Video Codec
Format profile                           : High@L3.0
Format settings, CABAC                   : Yes
Format settings, ReFrames                : 3 frames
Codec ID                                 : avc1
Codec ID/Info                            : Advanced Video Coding
Duration                                 : 2h 6mn
Bit rate mode                            : Variable
Bit rate                                 : 1 486 Kbps
Maximum bit rate                         : 8 000 Kbps
Width                                    : 720 pixels
Height                                   : 404 pixels
Display aspect ratio                     : 16:9
Frame rate mode                          : Constant
Frame rate                               : 29.970 fps
Standard                                 : NTSC
Color space                              : YUV
Chroma subsampling                       : 4:2:0
Bit depth                                : 8 bits
Scan type                                : Progressive
Bits/(Pixel*Frame)                       : 0.170
Stream size                              : 1.31 GiB (96%)
Writing library                          : x264 core 112
Color primaries                          : BT.601 NTSC
Transfer characteristics                 : BT.601
Matrix coefficients                      : BT.601

Audio
ID                                       : 1
Format                                   : AAC
Format/Info                              : Advanced Audio Codec
Format profile                           : LC
Codec ID                                 : 40
Duration                                 : 2h 6mn
Bit rate mode                            : Variable
Bit rate                                 : 63.9 Kbps
Maximum bit rate                         : 576 Kbps
Channel(s)                               : 2 channels
Channel positions                        : Front: L R
Sampling rate                            : 48.0 KHz
Compression mode                         : Lossy
Delay relative to video                  : 33ms
Stream size                              : 57.6 MiB (4%)

Screens  http://bayimg.com/AaMKiAAei

         http://bayimg.com/aaMkJAaEI

         http://bayimg.com/aamKMaAEi

Enjoy.







